<?xml version="1.0" encoding="UTF-8"?>
<svg id="Camada_2" data-name="Camada 2" xmlns="http://www.w3.org/2000/svg" viewBox="0 0 10.57 9.25">
  <defs>
    <style>
      .cls-1 {
        fill: #e1001a;
      }
    </style>
  </defs>
  <g id="Camada_1-2" data-name="Camada 1">
    <g>
      <path class="cls-1" d="m10.18,8.85c-.06-.03-.14,0-.21,0-1.56,0-3.12,0-4.68,0h-.27s-.02-.05-.03-.08c.08-.06.16-.11.23-.18,1.67-1.67,3.34-3.33,5-5,.46-.46.46-1.02,0-1.49-.6-.61-1.2-1.2-1.8-1.81-.21-.21-.45-.32-.76-.29-.31.03-.63.06-.94.06-.62,0-1.08.27-1.51.71C3.68,2.36,2.1,3.91.55,5.48c-.2.2-.34.46-.51.69-.06.14-.06.24,0,.42.12.19.21.41.37.56.57.59,1.16,1.17,1.74,1.75.24.25.53.35.87.34.8-.02,1.59-.04,2.39-.04,1.52,0,3.03,0,4.55,0,.08,0,.17.02.23-.01.07-.03.15-.12.15-.18,0-.06-.09-.13-.16-.16Zm-7.88-.34c-.52-.57-1.08-1.09-1.63-1.64-.33-.33-.33-.65,0-.98.83-.83,1.67-1.65,2.48-2.5.27-.28.53-.26.88-.16-.2.19-.37.36-.54.54-.61.61-1.23,1.22-1.84,1.84-.47.47-.47,1.03,0,1.5.5.5,1,1,1.5,1.51.06.06.11.12.18.2-.42.07-.75.01-1.04-.31Zm1.39.07c-.58-.57-1.15-1.15-1.73-1.73-.35-.35-.35-.65,0-1,.79-.79,1.57-1.58,2.36-2.36.03-.03.15-.1.27-.17.89.88,1.78,1.75,2.73,2.68-.14.11-.26.18-.35.27-.77.77-1.54,1.54-2.31,2.3-.34.34-.64.34-.98,0Z"/>
      <path class="cls-1" d="m1.55,6.11s-.04,0-.06,0c-.43,0-.86,0-1.29,0,0,.12-.02.24-.03.36.44,0,.88,0,1.31,0,.02,0,.05.02.07-.01.02-.03.04-.12.04-.18,0-.06-.03-.13-.05-.16Z"/>
    </g>
  </g>
</svg>