<?xml version="1.0" encoding="UTF-8"?>
<svg id="Camada_2" data-name="Camada 2" xmlns="http://www.w3.org/2000/svg" viewBox="0 0 17.18 17.91">
  <defs>
    <style>
      .cls-1 {
        fill: #fff;
      }
    </style>
  </defs>
  <g id="Camada_1-2" data-name="Camada 1">
    <g>
      <path class="cls-1" d="m1.34,17.6c.51.45,1.3.41,1.75-.1l3.46-3.89c.45-.51.41-1.3-.1-1.75l-.93-.82c-.51-.45-1.3-.41-1.75.1L.31,15.03c-.45.51-.41,1.3.1,1.75l.93.82Z"/>
      <path class="cls-1" d="m17.18,6.28c.03,2.63-1.59,5.1-4.21,6.03-3.3,1.18-6.92-.54-8.1-3.84-.24-.68-.36-1.38-.37-2.07-.03-2.63,1.59-5.1,4.21-6.03,3.3-1.18,6.93.54,8.1,3.84.24.68.36,1.38.37,2.07m-1.72.02c0-.51-.1-1.02-.27-1.51h0c-.42-1.16-1.26-2.09-2.37-2.62-1.12-.53-2.37-.59-3.53-.18-1.85.66-3.09,2.43-3.07,4.4,0,.51.1,1.02.27,1.51.42,1.16,1.26,2.09,2.37,2.62,1.12.53,2.37.59,3.53.17,1.85-.66,3.09-2.43,3.07-4.4h0Z"/>
    </g>
  </g>
</svg>